# xmcd
#
# Track frame offsets: 
#        187
#        14029
#        27829
#        43107
#        56004
#        69074
#        82417
#        92709
#        106529
#        125474
#        136897
#        148799
#        162052
#        175664
#        188697
#        203109
#        221524
#        235752
#        250124
#        261972
#        274897
#        288039
#
# Disc length: 4008 seconds
#
# Revision: 1
# Processed by: cddbd v1.5.2PL0 Copyright (c) Steve Scherf et al.
# Submitted via: ExactAudioCopy v1.0b3
#
DISCID=360fa616
DTITLE=Various Artist - The Very Best of the Blues
DYEAR=1993
DGENRE=Blues
TTITLE0=Muddy Waters - I'm Ready
TTITLE1=Little Walter - You're So Fine
TTITLE2=Sonny Boy Williamson - Cross My Heart
TTITLE3=Howlin' Wolf - Back Door Man
TTITLE4=J.B. Lenoir - Eisenhower Blues
TTITLE5=John Lee Hooker - Union Station Blues 
TTITLE6=Elmore James - Talk To Me Baby
TTITLE7=Robert Nighthawk - Black Angel Blues
TTITLE8=B.B. King - Don't Answer The Doors
TTITLE9=Junior Parker - Mother-In-Law Blues
TTITLE10=Bobby Bland - Little Boy Blue
TTITLE11=James Davis - Blue Monday
TTITLE12=Koko Taylor - Wang Dang Doodle
TTITLE13=Buddy Guy - Let Me Love You Baby
TTITLE14=Otis Rush - So Many Roads
TTITLE15=Little Milton - Feel So Bad
TTITLE16=Willie Mabon and His Bombo - I Don't Know
TTITLE17=Lowell Fulson - Reconsider Baby
TTITLE18=Big Mama Thornton - Rock-A-Bye Baby
TTITLE19=Jimmy Witherspoon - When The Lights Go Out
TTITLE20=Joe Turner - Piney Brown Blues
TTITLE21=Louis Jordan - Let The Good Time Roll
EXTD=
EXTT0=
EXTT1=
EXTT2=
EXTT3=
EXTT4=
EXTT5=
EXTT6=
EXTT7=
EXTT8=
EXTT9=
EXTT10=
EXTT11=
EXTT12=
EXTT13=
EXTT14=
EXTT15=
EXTT16=
EXTT17=
EXTT18=
EXTT19=
EXTT20=
EXTT21=
PLAYORDER=
